<svg width="89" height="24" viewBox="0 0 89 24" fill="none" xmlns="http://www.w3.org/2000/svg">
<rect width="24" height="24" fill="white"/>
<circle cx="12.0001" cy="12" r="10.2857" fill="#2C76FC"/>
<circle cx="11.9999" cy="12" r="7.71429" fill="white"/>
<circle cx="12" cy="12" r="6" fill="black"/>
<rect width="24" height="12" fill="white"/>
<rect x="1.71436" y="1.71429" width="20.5714" height="8.57143" rx="2" fill="#2C76FC"/>
<path d="M31.5625 18H29.0391L29.0547 15.8906H31.5625C32.0833 15.8906 32.5234 15.7656 32.8828 15.5156C33.2474 15.2656 33.5234 14.8932 33.7109 14.3984C33.9036 13.8984 34 13.2839 34 12.5547V12.0625C34 11.5156 33.9453 11.0365 33.8359 10.625C33.7318 10.2083 33.5755 9.86198 33.3672 9.58594C33.1589 9.30469 32.8984 9.09375 32.5859 8.95312C32.2786 8.8125 31.9245 8.74219 31.5234 8.74219H28.9922V6.625H31.5234C32.2943 6.625 33 6.75781 33.6406 7.02344C34.2865 7.28385 34.8438 7.65885 35.3125 8.14844C35.7865 8.63281 36.151 9.20833 36.4062 9.875C36.6667 10.5365 36.7969 11.2708 36.7969 12.0781V12.5547C36.7969 13.3568 36.6667 14.0911 36.4062 14.7578C36.151 15.4245 35.7891 16 35.3203 16.4844C34.8516 16.9688 34.2969 17.3438 33.6562 17.6094C33.0208 17.8698 32.3229 18 31.5625 18ZM30.6094 6.625V18H27.8672V6.625H30.6094ZM37.7734 13.8594V13.6953C37.7734 13.0755 37.862 12.5052 38.0391 11.9844C38.2161 11.4583 38.4766 11.0026 38.8203 10.6172C39.1641 10.2318 39.5885 9.93229 40.0938 9.71875C40.599 9.5 41.1823 9.39062 41.8438 9.39062C42.5104 9.39062 43.0964 9.5 43.6016 9.71875C44.112 9.93229 44.5391 10.2318 44.8828 10.6172C45.2266 11.0026 45.487 11.4583 45.6641 11.9844C45.8411 12.5052 45.9297 13.0755 45.9297 13.6953V13.8594C45.9297 14.474 45.8411 15.0443 45.6641 15.5703C45.487 16.0911 45.2266 16.5469 44.8828 16.9375C44.5391 17.3229 44.1146 17.6224 43.6094 17.8359C43.1042 18.0495 42.5208 18.1562 41.8594 18.1562C41.1979 18.1562 40.612 18.0495 40.1016 17.8359C39.5911 17.6224 39.1641 17.3229 38.8203 16.9375C38.4766 16.5469 38.2161 16.0911 38.0391 15.5703C37.862 15.0443 37.7734 14.474 37.7734 13.8594ZM40.4062 13.6953V13.8594C40.4062 14.1771 40.4297 14.474 40.4766 14.75C40.5234 15.026 40.6016 15.2682 40.7109 15.4766C40.8203 15.6797 40.9688 15.8385 41.1562 15.9531C41.3438 16.0677 41.5781 16.125 41.8594 16.125C42.1354 16.125 42.3646 16.0677 42.5469 15.9531C42.7344 15.8385 42.8828 15.6797 42.9922 15.4766C43.1016 15.2682 43.1797 15.026 43.2266 14.75C43.2734 14.474 43.2969 14.1771 43.2969 13.8594V13.6953C43.2969 13.388 43.2734 13.099 43.2266 12.8281C43.1797 12.5521 43.1016 12.3099 42.9922 12.1016C42.8828 11.888 42.7344 11.7214 42.5469 11.6016C42.3594 11.4818 42.125 11.4219 41.8438 11.4219C41.5677 11.4219 41.3359 11.4818 41.1484 11.6016C40.9661 11.7214 40.8203 11.888 40.7109 12.1016C40.6016 12.3099 40.5234 12.5521 40.4766 12.8281C40.4297 13.099 40.4062 13.388 40.4062 13.6953ZM46.7734 13.8594V13.6953C46.7734 13.0755 46.862 12.5052 47.0391 11.9844C47.2161 11.4583 47.4766 11.0026 47.8203 10.6172C48.1641 10.2318 48.5885 9.93229 49.0938 9.71875C49.599 9.5 50.1823 9.39062 50.8438 9.39062C51.5104 9.39062 52.0964 9.5 52.6016 9.71875C53.112 9.93229 53.5391 10.2318 53.8828 10.6172C54.2266 11.0026 54.487 11.4583 54.6641 11.9844C54.8411 12.5052 54.9297 13.0755 54.9297 13.6953V13.8594C54.9297 14.474 54.8411 15.0443 54.6641 15.5703C54.487 16.0911 54.2266 16.5469 53.8828 16.9375C53.5391 17.3229 53.1146 17.6224 52.6094 17.8359C52.1042 18.0495 51.5208 18.1562 50.8594 18.1562C50.1979 18.1562 49.612 18.0495 49.1016 17.8359C48.5911 17.6224 48.1641 17.3229 47.8203 16.9375C47.4766 16.5469 47.2161 16.0911 47.0391 15.5703C46.862 15.0443 46.7734 14.474 46.7734 13.8594ZM49.4062 13.6953V13.8594C49.4062 14.1771 49.4297 14.474 49.4766 14.75C49.5234 15.026 49.6016 15.2682 49.7109 15.4766C49.8203 15.6797 49.9688 15.8385 50.1562 15.9531C50.3438 16.0677 50.5781 16.125 50.8594 16.125C51.1354 16.125 51.3646 16.0677 51.5469 15.9531C51.7344 15.8385 51.8828 15.6797 51.9922 15.4766C52.1016 15.2682 52.1797 15.026 52.2266 14.75C52.2734 14.474 52.2969 14.1771 52.2969 13.8594V13.6953C52.2969 13.388 52.2734 13.099 52.2266 12.8281C52.1797 12.5521 52.1016 12.3099 51.9922 12.1016C51.8828 11.888 51.7344 11.7214 51.5469 11.6016C51.3594 11.4818 51.125 11.4219 50.8438 11.4219C50.5677 11.4219 50.3359 11.4818 50.1484 11.6016C49.9661 11.7214 49.8203 11.888 49.7109 12.1016C49.6016 12.3099 49.5234 12.5521 49.4766 12.8281C49.4297 13.099 49.4062 13.388 49.4062 13.6953ZM58.7578 11.6406V18H56.125V9.54688H58.5859L58.7578 11.6406ZM61.2578 9.48438L61.2109 11.9297C61.1068 11.9193 60.9661 11.9062 60.7891 11.8906C60.612 11.875 60.4635 11.8672 60.3438 11.8672C60.0365 11.8672 59.7708 11.9036 59.5469 11.9766C59.3281 12.0443 59.1458 12.1484 59 12.2891C58.8594 12.4245 58.7552 12.5964 58.6875 12.8047C58.625 13.013 58.5964 13.2552 58.6016 13.5312L58.125 13.2188C58.125 12.651 58.1797 12.1354 58.2891 11.6719C58.4036 11.2031 58.5651 10.7995 58.7734 10.4609C58.9818 10.1172 59.2344 9.85417 59.5312 9.67188C59.8281 9.48438 60.1615 9.39062 60.5312 9.39062C60.6615 9.39062 60.7891 9.39844 60.9141 9.41406C61.0443 9.42969 61.1589 9.45312 61.2578 9.48438ZM64.7422 6V18H62.1094V6H64.7422ZM64.4297 13.4844L63.8125 13.5C63.8125 12.9062 63.8854 12.3594 64.0312 11.8594C64.1771 11.3594 64.3854 10.9245 64.6562 10.5547C64.9271 10.1849 65.2526 9.89844 65.6328 9.69531C66.013 9.49219 66.4349 9.39062 66.8984 9.39062C67.3151 9.39062 67.6953 9.45052 68.0391 9.57031C68.388 9.6901 68.6875 9.88281 68.9375 10.1484C69.1927 10.4141 69.388 10.7604 69.5234 11.1875C69.6641 11.6146 69.7344 12.1354 69.7344 12.75V18H67.0859V12.7344C67.0859 12.3906 67.0365 12.125 66.9375 11.9375C66.8438 11.7448 66.7083 11.612 66.5312 11.5391C66.3542 11.4609 66.138 11.4219 65.8828 11.4219C65.5755 11.4219 65.3255 11.474 65.1328 11.5781C64.9401 11.6823 64.7917 11.8281 64.6875 12.0156C64.5885 12.1979 64.5208 12.4141 64.4844 12.6641C64.4479 12.9141 64.4297 13.1875 64.4297 13.4844ZM76.1328 15.9453V9.54688H78.7734V18H76.3047L76.1328 15.9453ZM76.3828 14.2266L77.0703 14.2109C77.0703 14.7786 77.0026 15.3047 76.8672 15.7891C76.7318 16.2682 76.5312 16.6849 76.2656 17.0391C76.0052 17.3932 75.6823 17.6693 75.2969 17.8672C74.9167 18.0599 74.4766 18.1562 73.9766 18.1562C73.5599 18.1562 73.1771 18.099 72.8281 17.9844C72.4844 17.8646 72.1875 17.6797 71.9375 17.4297C71.6875 17.1745 71.4922 16.849 71.3516 16.4531C71.2161 16.0521 71.1484 15.5729 71.1484 15.0156V9.54688H73.7812V15.0312C73.7812 15.2188 73.8047 15.3802 73.8516 15.5156C73.8984 15.651 73.9661 15.7656 74.0547 15.8594C74.1432 15.9479 74.2526 16.0156 74.3828 16.0625C74.5182 16.1042 74.6719 16.125 74.8438 16.125C75.2396 16.125 75.5495 16.0417 75.7734 15.875C75.9974 15.7083 76.1536 15.4818 76.2422 15.1953C76.3359 14.9089 76.3828 14.5859 76.3828 14.2266ZM80.25 6H82.8828V15.9219L82.6094 18H80.25V6ZM88.0703 13.6797V13.8438C88.0703 14.4844 88.0052 15.0677 87.875 15.5938C87.7448 16.1198 87.5443 16.5755 87.2734 16.9609C87.0026 17.3411 86.6615 17.6354 86.25 17.8438C85.8385 18.0521 85.3516 18.1562 84.7891 18.1562C84.2786 18.1562 83.8411 18.0469 83.4766 17.8281C83.112 17.6042 82.8073 17.2969 82.5625 16.9062C82.3177 16.5104 82.1198 16.0547 81.9688 15.5391C81.8177 15.0182 81.6979 14.4609 81.6094 13.8672V13.6719C81.6979 13.0833 81.8177 12.5312 81.9688 12.0156C82.1198 11.4948 82.3177 11.0391 82.5625 10.6484C82.8073 10.2526 83.1094 9.94531 83.4688 9.72656C83.8333 9.5026 84.2682 9.39062 84.7734 9.39062C85.3411 9.39062 85.8307 9.4974 86.2422 9.71094C86.6589 9.92448 87.0026 10.224 87.2734 10.6094C87.5443 10.9948 87.7448 11.4479 87.875 11.9688C88.0052 12.4896 88.0703 13.0599 88.0703 13.6797ZM85.4375 13.8438V13.6797C85.4375 13.3724 85.4193 13.0833 85.3828 12.8125C85.3464 12.5417 85.2812 12.3021 85.1875 12.0938C85.0938 11.8854 84.9609 11.7214 84.7891 11.6016C84.6172 11.4818 84.3932 11.4219 84.1172 11.4219C83.8359 11.4219 83.599 11.4688 83.4062 11.5625C83.2188 11.6562 83.0677 11.7917 82.9531 11.9688C82.8438 12.1406 82.7656 12.3542 82.7188 12.6094C82.6719 12.8594 82.651 13.1432 82.6562 13.4609V14.0781C82.6458 14.5104 82.6849 14.8802 82.7734 15.1875C82.862 15.4948 83.0156 15.7292 83.2344 15.8906C83.4531 16.0521 83.7526 16.1328 84.1328 16.1328C84.4141 16.1328 84.6406 16.0781 84.8125 15.9688C84.9896 15.8594 85.1224 15.7031 85.2109 15.5C85.2995 15.2969 85.3594 15.0547 85.3906 14.7734C85.4219 14.4922 85.4375 14.1823 85.4375 13.8438Z" fill="black"/>
</svg>
